<?xml version="1.0" encoding="UTF-8"?>
<svg width="24px" height="24px" viewBox="0 0 24 24" version="1.1" xmlns="http://www.w3.org/2000/svg" xmlns:xlink="http://www.w3.org/1999/xlink">
    <!-- Generator: Sketch 44.1 (41455) - http://www.bohemiancoding.com/sketch -->
    <title>Material/Icons white/add</title>
    <desc>Created with Sketch.</desc>
    <defs></defs>
    <g id="Symbols" stroke="none" stroke-width="1" fill="none" fill-rule="evenodd">
        <g id="Material/Icons-white/add" fill="#FFFFFF">
            <path d="M21,11.5 C21,10.6715729 20.3288106,10 19.4983244,10 L14,10 L14,4.50167562 C14,3.67232308 13.3342028,3 12.5,3 L12.5,3 C11.6715729,3 11,3.67118943 11,4.50167562 L11,10 L8.50083274,10 C7.6719457,10 7,10.6657972 7,11.5 L7,11.5 C7,12.3284271 7.67854548,13 8.50083274,13 L11,13 L11,19.4952612 C11,20.3263055 11.6657972,21 12.5,21 L12.5,21 C13.3284271,21 14,20.3316845 14,19.4952612 L14,13 L19.4983244,13 C20.3276769,13 21,12.3342028 21,11.5 L21,11.5 Z" id="Shape"></path>
            <path d="M3,11.5 C3,12.3284271 3.66579723,13 4.5,13 L4.5,13 C5.32842712,13 6,12.3342028 6,11.5 L6,11.5 C6,10.6715729 5.33420277,10 4.5,10 L4.5,10 C3.67157288,10 3,10.6657972 3,11.5 L3,11.5 Z" id="Path"></path>
        </g>
    </g>
</svg>